<mxfile host="www.draw.io" modified="2019-12-11T18:46:30.234Z" agent="Mozilla/5.0 (Macintosh; Intel Mac OS X 10_13_6) AppleWebKit/537.36 (KHTML, like Gecko) Chrome/78.0.3904.108 Safari/537.36" etag="dnZ3UXfP3O3GnHYQeiu5" version="12.3.9" type="github" pages="1">
  <diagram id="MpDLYx3QMa442t6xBY1V" name="ページ1">
    <mxGraphModel dx="857" dy="877" grid="1" gridSize="10" guides="1" tooltips="1" connect="1" arrows="1" fold="1" page="1" pageScale="1" pageWidth="1169" pageHeight="827" math="0" shadow="0">
      <root>
        <mxCell id="0"/>
        <mxCell id="1" parent="0"/>
        <mxCell id="xG6S7riabnA1kvx6316K-26" style="edgeStyle=orthogonalEdgeStyle;rounded=0;orthogonalLoop=1;jettySize=auto;html=1;exitX=1;exitY=0.5;exitDx=0;exitDy=0;fontStyle=1" edge="1" parent="1" source="xG6S7riabnA1kvx6316K-2" target="xG6S7riabnA1kvx6316K-16">
          <mxGeometry relative="1" as="geometry"/>
        </mxCell>
        <mxCell id="xG6S7riabnA1kvx6316K-2" value="create&lt;br&gt;Lambda" style="rounded=0;whiteSpace=wrap;html=1;fontStyle=1" vertex="1" parent="1">
          <mxGeometry x="500" y="370" width="120" height="60" as="geometry"/>
        </mxCell>
        <mxCell id="xG6S7riabnA1kvx6316K-29" style="edgeStyle=orthogonalEdgeStyle;rounded=0;orthogonalLoop=1;jettySize=auto;html=1;exitX=1;exitY=0.5;exitDx=0;exitDy=0;fontStyle=1" edge="1" parent="1" source="xG6S7riabnA1kvx6316K-3" target="xG6S7riabnA1kvx6316K-16">
          <mxGeometry relative="1" as="geometry"/>
        </mxCell>
        <mxCell id="xG6S7riabnA1kvx6316K-3" value="delete&lt;br&gt;Lambda" style="rounded=0;whiteSpace=wrap;html=1;fontStyle=1" vertex="1" parent="1">
          <mxGeometry x="500" y="480" width="120" height="60" as="geometry"/>
        </mxCell>
        <mxCell id="xG6S7riabnA1kvx6316K-30" style="edgeStyle=orthogonalEdgeStyle;rounded=0;orthogonalLoop=1;jettySize=auto;html=1;exitX=1;exitY=0.5;exitDx=0;exitDy=0;fontStyle=1" edge="1" parent="1" source="xG6S7riabnA1kvx6316K-4">
          <mxGeometry relative="1" as="geometry">
            <mxPoint x="810" y="440" as="targetPoint"/>
          </mxGeometry>
        </mxCell>
        <mxCell id="xG6S7riabnA1kvx6316K-4" value="list&lt;br&gt;Lambda" style="rounded=0;whiteSpace=wrap;html=1;fontStyle=1" vertex="1" parent="1">
          <mxGeometry x="500" y="590" width="120" height="60" as="geometry"/>
        </mxCell>
        <mxCell id="xG6S7riabnA1kvx6316K-28" style="edgeStyle=orthogonalEdgeStyle;rounded=0;orthogonalLoop=1;jettySize=auto;html=1;exitX=1;exitY=0.5;exitDx=0;exitDy=0;fontStyle=1" edge="1" parent="1" source="xG6S7riabnA1kvx6316K-5" target="xG6S7riabnA1kvx6316K-16">
          <mxGeometry relative="1" as="geometry"/>
        </mxCell>
        <mxCell id="xG6S7riabnA1kvx6316K-5" value="get&lt;br&gt;Lambda" style="rounded=0;whiteSpace=wrap;html=1;fontStyle=1" vertex="1" parent="1">
          <mxGeometry x="500" y="260" width="120" height="60" as="geometry"/>
        </mxCell>
        <mxCell id="xG6S7riabnA1kvx6316K-27" style="edgeStyle=orthogonalEdgeStyle;rounded=0;orthogonalLoop=1;jettySize=auto;html=1;exitX=1;exitY=0.5;exitDx=0;exitDy=0;fontStyle=1" edge="1" parent="1" source="xG6S7riabnA1kvx6316K-6" target="xG6S7riabnA1kvx6316K-16">
          <mxGeometry relative="1" as="geometry"/>
        </mxCell>
        <mxCell id="xG6S7riabnA1kvx6316K-6" value="update&lt;br&gt;Lambda" style="rounded=0;whiteSpace=wrap;html=1;fontStyle=1" vertex="1" parent="1">
          <mxGeometry x="500" y="150" width="120" height="60" as="geometry"/>
        </mxCell>
        <mxCell id="xG6S7riabnA1kvx6316K-9" value="" style="outlineConnect=0;dashed=0;verticalLabelPosition=bottom;verticalAlign=top;align=center;html=1;shape=mxgraph.aws3.lambda_function;fillColor=#F58534;gradientColor=none;aspect=fixed;fontStyle=1" vertex="1" parent="1">
          <mxGeometry x="598" y="127" width="44" height="46" as="geometry"/>
        </mxCell>
        <mxCell id="xG6S7riabnA1kvx6316K-11" value="" style="outlineConnect=0;dashed=0;verticalLabelPosition=bottom;verticalAlign=top;align=center;html=1;shape=mxgraph.aws3.lambda_function;fillColor=#F58534;gradientColor=none;aspect=fixed;fontStyle=1" vertex="1" parent="1">
          <mxGeometry x="598" y="237" width="44" height="46" as="geometry"/>
        </mxCell>
        <mxCell id="xG6S7riabnA1kvx6316K-12" value="" style="outlineConnect=0;dashed=0;verticalLabelPosition=bottom;verticalAlign=top;align=center;html=1;shape=mxgraph.aws3.lambda_function;fillColor=#F58534;gradientColor=none;aspect=fixed;fontStyle=1" vertex="1" parent="1">
          <mxGeometry x="598" y="347" width="44" height="46" as="geometry"/>
        </mxCell>
        <mxCell id="xG6S7riabnA1kvx6316K-13" value="" style="outlineConnect=0;dashed=0;verticalLabelPosition=bottom;verticalAlign=top;align=center;html=1;shape=mxgraph.aws3.lambda_function;fillColor=#F58534;gradientColor=none;aspect=fixed;fontStyle=1" vertex="1" parent="1">
          <mxGeometry x="598" y="457" width="44" height="46" as="geometry"/>
        </mxCell>
        <mxCell id="xG6S7riabnA1kvx6316K-14" value="" style="outlineConnect=0;dashed=0;verticalLabelPosition=bottom;verticalAlign=top;align=center;html=1;shape=mxgraph.aws3.lambda_function;fillColor=#F58534;gradientColor=none;aspect=fixed;fontStyle=1" vertex="1" parent="1">
          <mxGeometry x="598" y="567" width="44" height="46" as="geometry"/>
        </mxCell>
        <mxCell id="xG6S7riabnA1kvx6316K-16" value="" style="outlineConnect=0;fontColor=#232F3E;gradientColor=#4D72F3;gradientDirection=north;fillColor=#3334B9;strokeColor=#ffffff;dashed=0;verticalLabelPosition=bottom;verticalAlign=top;align=center;html=1;fontSize=12;fontStyle=1;aspect=fixed;shape=mxgraph.aws4.resourceIcon;resIcon=mxgraph.aws4.dynamodb;" vertex="1" parent="1">
          <mxGeometry x="771" y="361" width="78" height="78" as="geometry"/>
        </mxCell>
        <mxCell id="xG6S7riabnA1kvx6316K-20" style="edgeStyle=orthogonalEdgeStyle;rounded=0;orthogonalLoop=1;jettySize=auto;html=1;entryX=0;entryY=0.5;entryDx=0;entryDy=0;fontStyle=1" edge="1" parent="1" source="xG6S7riabnA1kvx6316K-17" target="xG6S7riabnA1kvx6316K-6">
          <mxGeometry relative="1" as="geometry"/>
        </mxCell>
        <mxCell id="xG6S7riabnA1kvx6316K-21" style="edgeStyle=orthogonalEdgeStyle;rounded=0;orthogonalLoop=1;jettySize=auto;html=1;entryX=0;entryY=0.5;entryDx=0;entryDy=0;fontStyle=1" edge="1" parent="1" source="xG6S7riabnA1kvx6316K-17" target="xG6S7riabnA1kvx6316K-5">
          <mxGeometry relative="1" as="geometry"/>
        </mxCell>
        <mxCell id="xG6S7riabnA1kvx6316K-22" style="edgeStyle=orthogonalEdgeStyle;rounded=0;orthogonalLoop=1;jettySize=auto;html=1;entryX=0;entryY=0.5;entryDx=0;entryDy=0;fontStyle=1" edge="1" parent="1" source="xG6S7riabnA1kvx6316K-17" target="xG6S7riabnA1kvx6316K-2">
          <mxGeometry relative="1" as="geometry"/>
        </mxCell>
        <mxCell id="xG6S7riabnA1kvx6316K-23" style="edgeStyle=orthogonalEdgeStyle;rounded=0;orthogonalLoop=1;jettySize=auto;html=1;entryX=0;entryY=0.5;entryDx=0;entryDy=0;fontStyle=1" edge="1" parent="1" source="xG6S7riabnA1kvx6316K-17" target="xG6S7riabnA1kvx6316K-3">
          <mxGeometry relative="1" as="geometry"/>
        </mxCell>
        <mxCell id="xG6S7riabnA1kvx6316K-24" style="edgeStyle=orthogonalEdgeStyle;rounded=0;orthogonalLoop=1;jettySize=auto;html=1;entryX=0;entryY=0.5;entryDx=0;entryDy=0;fontStyle=1" edge="1" parent="1" source="xG6S7riabnA1kvx6316K-17" target="xG6S7riabnA1kvx6316K-4">
          <mxGeometry relative="1" as="geometry"/>
        </mxCell>
        <mxCell id="xG6S7riabnA1kvx6316K-17" value="" style="outlineConnect=0;fontColor=#232F3E;gradientColor=#F54749;gradientDirection=north;fillColor=#C7131F;strokeColor=#ffffff;dashed=0;verticalLabelPosition=bottom;verticalAlign=top;align=center;html=1;fontSize=12;fontStyle=1;aspect=fixed;shape=mxgraph.aws4.resourceIcon;resIcon=mxgraph.aws4.api_gateway;" vertex="1" parent="1">
          <mxGeometry x="270" y="361" width="78" height="78" as="geometry"/>
        </mxCell>
        <mxCell id="xG6S7riabnA1kvx6316K-18" value="APIGateway" style="text;html=1;align=center;verticalAlign=middle;resizable=0;points=[];;autosize=1;fontStyle=1" vertex="1" parent="1">
          <mxGeometry x="269" y="447" width="80" height="20" as="geometry"/>
        </mxCell>
        <mxCell id="xG6S7riabnA1kvx6316K-19" value="DynamoDB" style="text;html=1;align=center;verticalAlign=middle;resizable=0;points=[];;autosize=1;fontStyle=1" vertex="1" parent="1">
          <mxGeometry x="769" y="447" width="80" height="20" as="geometry"/>
        </mxCell>
        <mxCell id="xG6S7riabnA1kvx6316K-31" value="proxy" style="text;html=1;align=center;verticalAlign=middle;resizable=0;points=[];;autosize=1;fontStyle=1" vertex="1" parent="1">
          <mxGeometry x="365" y="373" width="50" height="20" as="geometry"/>
        </mxCell>
        <mxCell id="xG6S7riabnA1kvx6316K-33" style="edgeStyle=orthogonalEdgeStyle;rounded=0;orthogonalLoop=1;jettySize=auto;html=1;" edge="1" parent="1" source="xG6S7riabnA1kvx6316K-32" target="xG6S7riabnA1kvx6316K-17">
          <mxGeometry relative="1" as="geometry"/>
        </mxCell>
        <mxCell id="xG6S7riabnA1kvx6316K-32" value="" style="outlineConnect=0;dashed=0;verticalLabelPosition=bottom;verticalAlign=top;align=center;html=1;shape=mxgraph.aws3.mobile_client;fillColor=#D2D3D3;gradientColor=none;" vertex="1" parent="1">
          <mxGeometry x="110" y="368.5" width="40.5" height="63" as="geometry"/>
        </mxCell>
      </root>
    </mxGraphModel>
  </diagram>
</mxfile>
